<?xml version="1.0" encoding="UTF-8"?><svg id="Layer_2" xmlns="http://www.w3.org/2000/svg" viewBox="0 0 726.85 800"><defs><style>.cls-1{fill:#ff4343;stroke-width:0px;}</style></defs><g id="Layer_2-2"><path class="cls-1" d="m422.29,418.86l21.08,177.98L12.13,308.83c6,40.98,14.75,87.48,27.35,139.31,45.48,187.09,194.62,307.3,323.94,351.86,116.23-40.05,248.45-141.22,307.05-297.11l-248.18-84.03Z"/><path class="cls-1" d="m304.86,381.43l-21.08-177.98,395.75,272.99c2.87-9.26,5.49-18.68,7.83-28.3,56.34-231.75,35.85-357.23,35.85-357.23,0,0-43.53-12.8-167.73-44.81C424,12.21,363.42,0,363.42,0c0,0-60.58,12.21-192.06,46.09C47.16,78.1,3.63,90.91,3.63,90.91c0,0-11.28,69.19,5.96,199.66l295.28,90.86Z"/></g></svg>